ToyLandingModel_states
version=1
nRows=4
nColumns=195
inDegrees=yes

# SIMM Motion File Header:
name ToyLandingModel_states
datacolumns 195
datarows 4
otherdata 1
range 0.00000000 0.00342261
endheader
time	/jointset/ground_platform/platform_rx/value	/jointset/ground_platform/platform_rx/speed	/jointset/ground_platform/platform_ry/value	/jointset/ground_platform/platform_ry/speed	/jointset/ground_platform/platform_rz/value	/jointset/ground_platform/platform_rz/speed	/jointset/ground_platform/platform_ty/value	/jointset/ground_platform/platform_ty/speed	/jointset/ground_pelvis/pelvis_tilt/value	/jointset/ground_pelvis/pelvis_tilt/speed	/jointset/ground_pelvis/pelvis_list/value	/jointset/ground_pelvis/pelvis_list/speed	/jointset/ground_pelvis/pelvis_rotation/value	/jointset/ground_pelvis/pelvis_rotation/speed	/jointset/ground_pelvis/pelvis_tx/value	/jointset/ground_pelvis/pelvis_tx/speed	/jointset/ground_pelvis/pelvis_ty/value	/jointset/ground_pelvis/pelvis_ty/speed	/jointset/ground_pelvis/pelvis_tz/value	/jointset/ground_pelvis/pelvis_tz/speed	/jointset/hip_r/hip_flexion_r/value	/jointset/hip_r/hip_flexion_r/speed	/jointset/hip_r/hip_adduction_r/value	/jointset/hip_r/hip_adduction_r/speed	/jointset/hip_r/hip_rotation_r/value	/jointset/hip_r/hip_rotation_r/speed	/jointset/knee_r/knee_angle_r/value	/jointset/knee_r/knee_angle_r/speed	/jointset/ankle_r/ankle_angle_r/value	/jointset/ankle_r/ankle_angle_r/speed	/jointset/subtalar_r/subtalar_angle_r/value	/jointset/subtalar_r/subtalar_angle_r/speed	/jointset/mtp_r/mtp_angle_r/value	/jointset/mtp_r/mtp_angle_r/speed	/jointset/hip_l/hip_flexion_l/value	/jointset/hip_l/hip_flexion_l/speed	/jointset/hip_l/hip_adduction_l/value	/jointset/hip_l/hip_adduction_l/speed	/jointset/hip_l/hip_rotation_l/value	/jointset/hip_l/hip_rotation_l/speed	/jointset/knee_l/knee_angle_l/value	/jointset/knee_l/knee_angle_l/speed	/jointset/ankle_l/ankle_angle_l/value	/jointset/ankle_l/ankle_angle_l/speed	/jointset/subtalar_l/subtalar_angle_l/value	/jointset/subtalar_l/subtalar_angle_l/speed	/jointset/mtp_l/mtp_angle_l/value	/jointset/mtp_l/mtp_angle_l/speed	/jointset/back/lumbar_extension/value	/jointset/back/lumbar_extension/speed	/jointset/back/lumbar_bending/value	/jointset/back/lumbar_bending/speed	/jointset/back/lumbar_rotation/value	/jointset/back/lumbar_rotation/speed	/forceset/glut_med1_r/activation	/forceset/glut_med1_r/fiber_length	/forceset/glut_med2_r/activation	/forceset/glut_med2_r/fiber_length	/forceset/glut_med3_r/activation	/forceset/glut_med3_r/fiber_length	/forceset/bifemlh_r/activation	/forceset/bifemlh_r/fiber_length	/forceset/bifemsh_r/activation	/forceset/bifemsh_r/fiber_length	/forceset/sar_r/activation	/forceset/sar_r/fiber_length	/forceset/add_mag2_r/activation	/forceset/add_mag2_r/fiber_length	/forceset/tfl_r/activation	/forceset/tfl_r/fiber_length	/forceset/pect_r/activation	/forceset/pect_r/fiber_length	/forceset/grac_r/activation	/forceset/grac_r/fiber_length	/forceset/glut_max1_r/activation	/forceset/glut_max1_r/fiber_length	/forceset/glut_max2_r/activation	/forceset/glut_max2_r/fiber_length	/forceset/glut_max3_r/activation	/forceset/glut_max3_r/fiber_length	/forceset/iliacus_r/activation	/forceset/iliacus_r/fiber_length	/forceset/psoas_r/activation	/forceset/psoas_r/fiber_length	/forceset/quad_fem_r/activation	/forceset/quad_fem_r/fiber_length	/forceset/gem_r/activation	/forceset/gem_r/fiber_length	/forceset/peri_r/activation	/forceset/peri_r/fiber_length	/forceset/rect_fem_r/activation	/forceset/rect_fem_r/fiber_length	/forceset/vas_int_r/activation	/forceset/vas_int_r/fiber_length	/forceset/med_gas_r/activation	/forceset/med_gas_r/fiber_length	/forceset/lat_gas_r/activation	/forceset/lat_gas_r/fiber_length	/forceset/soleus_r/activation	/forceset/soleus_r/fiber_length	/forceset/tib_post_r/activation	/forceset/tib_post_r/fiber_length	/forceset/flex_dig_r/activation	/forceset/flex_dig_r/fiber_length	/forceset/flex_hal_r/activation	/forceset/flex_hal_r/fiber_length	/forceset/tib_ant_r/activation	/forceset/tib_ant_r/fiber_length	/forceset/per_brev_r/activation	/forceset/per_brev_r/fiber_length	/forceset/per_long_r/activation	/forceset/per_long_r/fiber_length	/forceset/per_tert_r/activation	/forceset/per_tert_r/fiber_length	/forceset/ext_dig_r/activation	/forceset/ext_dig_r/fiber_length	/forceset/ext_hal_r/activation	/forceset/ext_hal_r/fiber_length	/forceset/glut_med1_l/activation	/forceset/glut_med1_l/fiber_length	/forceset/glut_med2_l/activation	/forceset/glut_med2_l/fiber_length	/forceset/glut_med3_l/activation	/forceset/glut_med3_l/fiber_length	/forceset/bifemlh_l/activation	/forceset/bifemlh_l/fiber_length	/forceset/bifemsh_l/activation	/forceset/bifemsh_l/fiber_length	/forceset/sar_l/activation	/forceset/sar_l/fiber_length	/forceset/add_mag2_l/activation	/forceset/add_mag2_l/fiber_length	/forceset/tfl_l/activation	/forceset/tfl_l/fiber_length	/forceset/pect_l/activation	/forceset/pect_l/fiber_length	/forceset/grac_l/activation	/forceset/grac_l/fiber_length	/forceset/glut_max1_l/activation	/forceset/glut_max1_l/fiber_length	/forceset/glut_max2_l/activation	/forceset/glut_max2_l/fiber_length	/forceset/glut_max3_l/activation	/forceset/glut_max3_l/fiber_length	/forceset/iliacus_l/activation	/forceset/iliacus_l/fiber_length	/forceset/psoas_l/activation	/forceset/psoas_l/fiber_length	/forceset/quad_fem_l/activation	/forceset/quad_fem_l/fiber_length	/forceset/gem_l/activation	/forceset/gem_l/fiber_length	/forceset/peri_l/activation	/forceset/peri_l/fiber_length	/forceset/rect_fem_l/activation	/forceset/rect_fem_l/fiber_length	/forceset/vas_int_l/activation	/forceset/vas_int_l/fiber_length	/forceset/med_gas_l/activation	/forceset/med_gas_l/fiber_length	/forceset/lat_gas_l/activation	/forceset/lat_gas_l/fiber_length	/forceset/soleus_l/activation	/forceset/soleus_l/fiber_length	/forceset/tib_post_l/activation	/forceset/tib_post_l/fiber_length	/forceset/flex_dig_l/activation	/forceset/flex_dig_l/fiber_length	/forceset/flex_hal_l/activation	/forceset/flex_hal_l/fiber_length	/forceset/tib_ant_l/activation	/forceset/tib_ant_l/fiber_length	/forceset/per_brev_l/activation	/forceset/per_brev_l/fiber_length	/forceset/per_long_l/activation	/forceset/per_long_l/fiber_length	/forceset/per_tert_l/activation	/forceset/per_tert_l/fiber_length	/forceset/ext_dig_l/activation	/forceset/ext_dig_l/fiber_length	/forceset/ext_hal_l/activation	/forceset/ext_hal_l/fiber_length	/forceset/ercspn_r/activation	/forceset/ercspn_r/fiber_length	/forceset/ercspn_l/activation	/forceset/ercspn_l/fiber_length	/forceset/intobl_r/activation	/forceset/intobl_r/fiber_length	/forceset/intobl_l/activation	/forceset/intobl_l/fiber_length	/forceset/extobl_r/activation	/forceset/extobl_r/fiber_length	/forceset/extobl_l/activation	/forceset/extobl_l/fiber_length
      0.00000000	     20.00000000	      0.00000000	      0.00000000	      0.00000000	      0.00000000	      0.00000000	      0.25000000	      0.00000000	    -11.99999999	      0.00000000	      0.00000000	      0.00000000	      0.00000000	      0.00000000	      0.05000270	      0.00000000	      1.67000000	      0.00000000	      0.00000000	      0.00000000	     19.99999998	      0.00000000	     -0.99999986	      0.00000000	      4.99999985	      0.00000000	    -19.99999998	      0.00000000	     11.49999977	      0.00000000	     -0.03000064	      0.00000000	      0.00000000	      0.00000000	    -19.99999998	      0.00000000	     10.00000028	      0.00000000	      4.99999985	      0.00000000	   -119.99999986	      0.00000000	     11.49999977	      0.00000000	     -0.03000064	      0.00000000	      0.00000000	      0.00000000	      0.00000000	      0.00000000	      0.00000000	      0.00000000	      0.00000000	      0.00000000	      0.05000000	      0.04793332	      0.05000000	      0.09198631	      0.05000000	      0.07528143	      0.05000000	      0.11277259	      0.05000000	      0.17836239	      0.05000000	      0.49310973	      0.05000000	      0.08959719	      0.05000000	      0.10377010	      0.05000000	      0.06938582	      0.05000000	      0.34061150	      0.05000000	      0.09918222	      0.05000000	      0.11110281	      0.05000000	      0.12918107	      0.05000000	      0.10142096	      0.05000000	      0.09497285	      0.05000000	      0.05650900	      0.05000000	      0.03079593	      0.05000000	      0.02794688	      0.05000000	      0.10867646	      0.05000000	      0.08936885	      0.05000000	      0.10162239	      0.05000000	      0.07197092	      0.05000000	      0.09355528	      0.05000000	      0.03824523	      0.05000000	      0.03513766	      0.05000000	      0.04444444	      0.05000000	      0.07795879	      0.05000000	      0.05430413	      0.05000000	      0.05499251	      0.05000000	      0.08147051	      0.05000000	      0.09557380	      0.05000000	      0.10409071	      0.05000000	      0.05061706	      0.05000000	      0.08681697	      0.05000000	      0.06641540	      0.05000000	      0.02324560	      0.05000000	      0.13420205	      0.05000000	      0.50046163	      0.05000000	      0.06350887	      0.05000000	      0.14705731	      0.05000000	      0.08017566	      0.05000000	      0.26655206	      0.05000000	      0.07240829	      0.05000000	      0.07147729	      0.05000000	      0.06282810	      0.05000000	      0.13056146	      0.05000000	      0.12341036	      0.05000000	      0.04808642	      0.05000000	      0.02702785	      0.05000000	      0.02493024	      0.05000000	      0.20068001	      0.05000000	      0.15323793	      0.05000000	      0.07254418	      0.05000000	      0.04398627	      0.05000000	      0.09355528	      0.05000000	      0.03824523	      0.05000000	      0.03513766	      0.05000000	      0.04444444	      0.05000000	      0.07795879	      0.05000000	      0.05430413	      0.05000000	      0.05499251	      0.05000000	      0.08147051	      0.05000000	      0.09557380	      0.05000000	      0.10409071	      0.05000000	      0.13137865	      0.05000000	      0.13137865	      0.05000000	      0.10800530	      0.05000000	      0.10800530	      0.05000000	      0.14582278	      0.05000000	      0.14582278
      0.00100000	     20.00000000	     -0.00000000	      0.00000000	      0.00000000	     -0.00000000	     -0.00000000	      0.25000000	      0.00000000	    -11.99968636	      0.62634866	     -0.00023950	     -0.47566185	      0.00015222	      0.30564157	      0.05000280	      0.00020383	      1.66999674	     -0.00653445	     -0.00000136	     -0.00270635	     19.99883622	     -2.32421674	     -1.00078091	     -1.56012976	      4.99686083	     -6.26048583	    -19.99720351	      5.57550062	     11.47623978	    -47.17938870	     -0.01215626	     35.63462404	      0.00000000	      0.00000000	    -19.99999998	     -0.00000000	     10.00000028	     -0.00000000	      4.99999985	      0.00000000	   -119.99999986	     -0.00000000	     11.49999977	      0.00000000	     -0.03000064	      0.00000000	     -0.00000000	     -0.00000000	     -0.00039667	     -0.79181152	      0.00040210	      0.79922422	     -0.00012239	     -0.24618523	      0.04931403	      0.04793348	      0.04928705	      0.09198651	      0.04928705	      0.07528154	      0.04928943	      0.11277288	      0.04929749	      0.17836290	      0.04928897	      0.49311106	      0.04928807	      0.08959750	      0.04929584	      0.10377036	      0.04929990	      0.06938615	      0.04929255	      0.34061248	      0.04928705	      0.09918253	      0.04928705	      0.11110313	      0.04928705	      0.12918139	      0.04930170	      0.10142125	      0.04930048	      0.09497313	      0.04928705	      0.05650899	      0.04928705	      0.03079595	      0.04928705	      0.02794694	      0.04928705	      0.10867675	      0.04928705	      0.08936907	      0.04928705	      0.10162251	      0.04928705	      0.07197100	      0.04928705	      0.09355526	      0.07327897	      0.03823990	      0.07327897	      0.03513182	      0.07327897	      0.04443705	      0.07516801	      0.07794196	      0.13168949	      0.05427636	      0.13121731	      0.05496500	      0.13230005	      0.08142862	      0.13223193	      0.09551700	      0.07520800	      0.10407146	      0.04928705	      0.05061720	      0.04928705	      0.08681718	      0.04928705	      0.06641557	      0.04928705	      0.02324588	      0.04928705	      0.13420248	      0.04928705	      0.50046286	      0.04928705	      0.06350919	      0.04928705	      0.14705755	      0.04928705	      0.08017591	      0.04928705	      0.26655294	      0.04928705	      0.07240866	      0.04928705	      0.07147766	      0.04928705	      0.06282848	      0.04928705	      0.13056172	      0.04928705	      0.12341062	      0.04928705	      0.04808656	      0.04928705	      0.02702791	      0.04928705	      0.02493031	      0.04928705	      0.20068028	      0.04928705	      0.15323819	      0.04928705	      0.07254441	      0.04928705	      0.04398644	      0.04928705	      0.09355549	      0.04928705	      0.03824532	      0.04928705	      0.03513775	      0.04928705	      0.04444455	      0.04928705	      0.07795904	      0.04928705	      0.05430426	      0.04928705	      0.05499264	      0.04928705	      0.08147071	      0.04928705	      0.09557407	      0.04928705	      0.10409100	      0.04928755	      0.13137895	      0.04929254	      0.13137899	      0.04928705	      0.10800553	      0.04929154	      0.10800557	      0.04928705	      0.14582307	      0.04928705	      0.14582309
      0.00200000	     20.00000000	     -0.00000000	      0.00000000	      0.00000000	      0.00000000	      0.00000000	      0.25000000	      0.00000000	    -11.99875059	      1.24286122	     -0.00093935	     -0.91565212	      0.00061608	      0.62558515	      0.05000312	      0.00043220	      1.66998689	     -0.01319525	     -0.00000540	     -0.00536210	     19.99536441	     -4.61002235	     -1.00311851	     -3.11542397	      4.98752996	    -12.36870741	    -19.98891400	     10.95691490	     11.40689238	    -90.62723519	      0.04125409	     71.22460688	     -0.00000000	      0.00000000	    -19.99999998	      0.00000000	     10.00000028	     -0.00000000	      4.99999985	      0.00000000	   -119.99999986	     -0.00000000	     11.49999977	     -0.00000000	     -0.03000064	     -0.00000000	     -0.00000000	      0.00000000	     -0.00157805	     -1.56699844	      0.00158112	      1.54679486	     -0.00049789	     -0.50880887	      0.04869175	      0.04793402	      0.04858556	      0.09198702	      0.04858556	      0.07528160	      0.04859467	      0.11277376	      0.04862666	      0.17836463	      0.04859312	      0.49311492	      0.04858969	      0.08959845	      0.04862027	      0.10377114	      0.04863646	      0.06938739	      0.04860726	      0.34061566	      0.04858556	      0.09918325	      0.04858556	      0.11110380	      0.04858556	      0.12918213	      0.04864351	      0.10142221	      0.04863869	      0.09497402	      0.04858556	      0.05650815	      0.04858556	      0.03079572	      0.04858556	      0.02794708	      0.04858556	      0.10867754	      0.04858556	      0.08936953	      0.04858556	      0.10162230	      0.04858556	      0.07197085	      0.04858556	      0.09355382	      0.09203312	      0.03822557	      0.09203312	      0.03511624	      0.09203312	      0.04441735	      0.09869047	      0.07789858	      0.19523126	      0.05421132	      0.19365996	      0.05489886	      0.19717143	      0.08133978	      0.19691863	      0.09538376	      0.09885841	      0.10402094	      0.04858556	      0.05061762	      0.04858556	      0.08681781	      0.04858556	      0.06641606	      0.04858556	      0.02324675	      0.04858556	      0.13420371	      0.04858556	      0.50046608	      0.04858556	      0.06351011	      0.04858556	      0.14705826	      0.04858556	      0.08017660	      0.04858556	      0.26655538	      0.04858556	      0.07240973	      0.04858556	      0.07147877	      0.04858556	      0.06282957	      0.04858556	      0.13056245	      0.04858556	      0.12341140	      0.04858556	      0.04808695	      0.04858556	      0.02702810	      0.04858556	      0.02493052	      0.04858556	      0.20068099	      0.04858556	      0.15323894	      0.04858556	      0.07254514	      0.04858556	      0.04398696	      0.04858556	      0.09355612	      0.04858556	      0.03824557	      0.04858556	      0.03513802	      0.04858556	      0.04444490	      0.04858556	      0.07795982	      0.04858556	      0.05430466	      0.04858556	      0.05499304	      0.04858556	      0.08147133	      0.04858556	      0.09557489	      0.04858556	      0.10409189	      0.04858766	      0.13137977	      0.04860709	      0.13138012	      0.04858556	      0.10800611	      0.04860302	      0.10800640	      0.04858556	      0.14582383	      0.04858556	      0.14582400
      0.00342261	     20.00000000	     -0.00000000	      0.00000000	      0.00000000	      0.00000000	     -0.00000000	      0.25000000	      0.00000000	    -11.99637622	      2.08753582	     -0.00262495	     -1.42746566	      0.00185610	      1.12897506	      0.05000400	      0.00083326	      1.66996115	     -0.02308175	     -0.00001564	     -0.00900469	     19.98656456	     -7.72985468	     -1.00913119	     -5.34092420	      4.96398420	    -20.63611521	    -19.96823335	     17.96283022	     11.24064469	   -140.22902847	      0.17902365	    122.66622742	      0.00000000	     -0.00000000	    -19.99999998	      0.00000000	     10.00000028	     -0.00000000	      4.99999985	      0.00000000	   -119.99999986	     -0.00000000	     11.49999977	     -0.00000000	     -0.03000064	     -0.00000000	      0.00000000	      0.00000000	     -0.00456224	     -2.61562870	      0.00444938	      2.44774990	     -0.00151741	     -0.93728984	      0.04790864	      0.04793569	      0.04760691	      0.09198803	      0.04760691	      0.07528045	      0.04763114	      0.11277607	      0.04772357	      0.17836978	      0.04762843	      0.49312441	      0.04761987	      0.08960088	      0.04770605	      0.10377320	      0.04775376	      0.06939145	      0.04766897	      0.34062458	      0.04760691	      0.09918429	      0.04760691	      0.11110459	      0.04760691	      0.12918325	      0.04777334	      0.10142506	      0.04775952	      0.09497652	      0.04760691	      0.05650332	      0.04760691	      0.03079399	      0.04760691	      0.02794733	      0.04760691	      0.10867937	      0.04760691	      0.08936996	      0.04760691	      0.10161881	      0.04760691	      0.07196837	      0.04760691	      0.09354496	      0.11312679	      0.03819286	      0.11312679	      0.03508106	      0.11312679	      0.04437287	      0.12922023	      0.07780947	      0.26852316	      0.05408481	      0.26482473	      0.05476396	      0.27247776	      0.08119558	      0.27170702	      0.09512478	      0.12982393	      0.10391411	      0.04760691	      0.05061870	      0.04760691	      0.08681937	      0.04760691	      0.06641728	      0.04760691	      0.02324896	      0.04760691	      0.13420660	      0.04760691	      0.50047299	      0.04760691	      0.06351242	      0.04760691	      0.14705998	      0.04760691	      0.08017819	      0.04760691	      0.26656108	      0.04760691	      0.07241239	      0.04760691	      0.07148152	      0.04760691	      0.06283229	      0.04760691	      0.13056425	      0.04760691	      0.12341337	      0.04760691	      0.04808787	      0.04760691	      0.02702858	      0.04760691	      0.02493107	      0.04760691	      0.20068249	      0.04760691	      0.15324065	      0.04760691	      0.07254702	      0.04760691	      0.04398831	      0.04760691	      0.09355777	      0.04760691	      0.03824622	      0.04760691	      0.03513875	      0.04760691	      0.04444581	      0.04760691	      0.07796184	      0.04760691	      0.05430571	      0.04760691	      0.05499408	      0.04760691	      0.08147289	      0.04760691	      0.09557702	      0.04760691	      0.10409419	      0.04761387	      0.13138169	      0.04766763	      0.13138330	      0.04760691	      0.10800719	      0.04765513	      0.10800860	      0.04760691	      0.14582543	      0.04760691	      0.14582625
